<svg width="16" height="16" viewBox="0 0 16 16" fill="none" xmlns="http://www.w3.org/2000/svg">
<path d="M4.72656 0C5.27969 0 5.72656 0.446875 5.72656 1V2H9.72656V1C9.72656 0.446875 10.1734 0 10.7266 0C11.2797 0 11.7266 0.446875 11.7266 1V2H13.2266C14.0547 2 14.7266 2.67188 14.7266 3.5V5H0.726562V3.5C0.726562 2.67188 1.39844 2 2.22656 2H3.72656V1C3.72656 0.446875 4.17344 0 4.72656 0ZM0.726562 6H14.7266V14.5C14.7266 15.3281 14.0547 16 13.2266 16H2.22656C1.39844 16 0.726562 15.3281 0.726562 14.5V6ZM2.72656 8.5V9.5C2.72656 9.775 2.95156 10 3.22656 10H4.22656C4.50156 10 4.72656 9.775 4.72656 9.5V8.5C4.72656 8.225 4.50156 8 4.22656 8H3.22656C2.95156 8 2.72656 8.225 2.72656 8.5ZM6.72656 8.5V9.5C6.72656 9.775 6.95156 10 7.22656 10H8.22656C8.50156 10 8.72656 9.775 8.72656 9.5V8.5C8.72656 8.225 8.50156 8 8.22656 8H7.22656C6.95156 8 6.72656 8.225 6.72656 8.5ZM11.2266 8C10.9516 8 10.7266 8.225 10.7266 8.5V9.5C10.7266 9.775 10.9516 10 11.2266 10H12.2266C12.5016 10 12.7266 9.775 12.7266 9.5V8.5C12.7266 8.225 12.5016 8 12.2266 8H11.2266ZM2.72656 12.5V13.5C2.72656 13.775 2.95156 14 3.22656 14H4.22656C4.50156 14 4.72656 13.775 4.72656 13.5V12.5C4.72656 12.225 4.50156 12 4.22656 12H3.22656C2.95156 12 2.72656 12.225 2.72656 12.5ZM7.22656 12C6.95156 12 6.72656 12.225 6.72656 12.5V13.5C6.72656 13.775 6.95156 14 7.22656 14H8.22656C8.50156 14 8.72656 13.775 8.72656 13.5V12.5C8.72656 12.225 8.50156 12 8.22656 12H7.22656ZM10.7266 12.5V13.5C10.7266 13.775 10.9516 14 11.2266 14H12.2266C12.5016 14 12.7266 13.775 12.7266 13.5V12.5C12.7266 12.225 12.5016 12 12.2266 12H11.2266C10.9516 12 10.7266 12.225 10.7266 12.5Z" fill="#0966D3"/>
</svg>
