<svg class="svg-icon" style="width: 1em; height: 1em;vertical-align: middle;fill: #2ed47e;overflow: hidden;" viewBox="0 0 1024 1024" version="1.1" xmlns="http://www.w3.org/2000/svg"><path d="M640 880a240 240 0 1 1 240-240 240 240 0 0 1-240 240z m0-448a208 208 0 1 0 208 208 208 208 0 0 0-208-208z m144 224h-98.944A47.888 47.888 0 1 1 624 594.944V496a16 16 0 0 1 32 0v98.944A47.792 47.792 0 0 1 685.056 624H784a16 16 0 0 1 0 32z m-144-32a16 16 0 1 0 16 16 16 16 0 0 0-16-16zM448 368a47.856 47.856 0 0 1 47.392 41.92 273.152 273.152 0 0 0-60.672 51.984A47.872 47.872 0 0 1 448 368z m0 64a16 16 0 1 0-16-16 16 16 0 0 0 16 16z m-144 32a48 48 0 1 1 48-48 48 48 0 0 1-48 48z m0-64a16 16 0 1 0 16 16 16 16 0 0 0-16-16z m0 240a48 48 0 1 1 48-48 48 48 0 0 1-48 48z m0-64a16 16 0 1 0 16 16 16 16 0 0 0-16-16z m416-320a32 32 0 0 0-32-32h-32a48 48 0 0 1-96 0h-64a48 48 0 0 1-96 0h-64a48 48 0 0 1-96 0h-32a32 32 0 0 0-32 32v480a32 32 0 0 0 32 32h192a269.2 269.2 0 0 0 20.352 32H208a64 64 0 0 1-64-64V256a64 64 0 0 1 64-64h32a48 48 0 0 1 96 0h64a48 48 0 0 1 96 0h64a48 48 0 0 1 96 0h32a64 64 0 0 1 64 64v136.32a271.472 271.472 0 0 0-32-12.32V256z m-416-64a16 16 0 0 0-32 0v32a16 16 0 0 0 32 0v-32z m160 0a16 16 0 0 0-32 0v32a16 16 0 0 0 32 0v-32z m160 0a16 16 0 0 0-32 0v32a16 16 0 0 0 32 0v-32z" fill="#2ed47e" /></svg>