<?xml version="1.0" encoding="UTF-8"?>
<!DOCTYPE svg PUBLIC "-//W3C//DTD SVG 1.1//EN" "http://www.w3.org/Graphics/SVG/1.1/DTD/svg11.dtd">
<!-- Creator: CorelDRAW -->
<svg xmlns="http://www.w3.org/2000/svg" xml:space="preserve" width="6.72in" height="6.72in" style="shape-rendering:geometricPrecision; text-rendering:geometricPrecision; image-rendering:optimizeQuality; fill-rule:evenodd; clip-rule:evenodd"
viewBox="0 0 6.72 6.72"
 xmlns:xlink="http://www.w3.org/1999/xlink">
 <defs>
  <style type="text/css">
   <![CDATA[
    .fil2 {fill:none}
    .fil0 {fill:url(#id0);fill-rule:nonzero}
    .fil1 {fill:url(#id1);fill-rule:nonzero}
   ]]>
  </style>
  <linearGradient id="id0" gradientUnits="userSpaceOnUse" x1="0.797079" y1="3.36492" x2="5.92001" y2="3.36492">
   <stop offset="0" style="stop-color:#FFFFFF"/>
   <stop offset="1" style="stop-color:#FFFFFF"/>
  </linearGradient>
  <linearGradient id="id1" gradientUnits="userSpaceOnUse" xlink:href="#id0" x1="2.66406" y1="3.36" x2="4.05594" y2="3.36">
  </linearGradient>
 </defs>
 <g id="Layer_x0020_1">
  <metadata id="CorelCorpID_0Corel-Layer"/>
  <path class="fil0" d="M3.4126 0.82289c0.692394,0 1.31925,0.280657 1.773,0.734409 0.453752,0.453748 0.734409,1.08061 0.734409,1.773 0,0.692394 -0.280657,1.31925 -0.734409,1.773 -0.453748,0.453752 -1.08061,0.734409 -1.773,0.734409 -0.236634,0 -0.465937,-0.0329685 -0.683559,-0.0945591 -0.212256,-0.060063 -0.41328,-0.147563 -0.599031,-0.258394l-1.22483 0.407902 0.000110236 0.000330709c-0.0419173,0.0139567 -0.0872205,-0.00870866 -0.101177,-0.050626 -0.0070315,-0.0211142 -0.00476378,-0.0430827 0.00456693,-0.0614764l0.467181 -1.13863c-0.11585,-0.188272 -0.207531,-0.392988 -0.270685,-0.609811 -0.0650827,-0.223429 -0.0999843,-0.459071 -0.0999843,-0.70215 0,-0.692394 0.280657,-1.31925 0.734409,-1.773 0.453748,-0.453752 1.08061,-0.734409 1.773,-0.734409zm1.65987 0.847535c-0.424787,-0.424791 -1.01165,-0.687535 -1.65987,-0.687535 -0.648224,0 -1.23509,0.262744 -1.65987,0.687535 -0.424791,0.424787 -0.687535,1.01165 -0.687535,1.65987 0,0.229004 0.0325039,0.449705 0.0931102,0.657772 0.0621496,0.213378 0.153776,0.414173 0.270138,0.597693 0.0168819,0.021878 0.0219606,0.0519094 0.0107205,0.079311l-0.000259843 -5.51181e-005 -0.419157 1.02158 1.08787 -0.362287c0.0232638,-0.0102244 0.0510039,-0.00922441 0.0742638,0.00512598l-0.000133858 0.000271654c0.181594,0.112043 0.379886,0.20011 0.590429,0.259689 0.203232,0.0575157 0.418043,0.0883071 0.640433,0.0883071 0.648224,0 1.23509,-0.262744 1.65987,-0.687535 0.424791,-0.424787 0.687535,-1.01165 0.687535,-1.65987 0,-0.648224 -0.262744,-1.23509 -0.687535,-1.65987z"/>
  <path class="fil1" d="M3.22614 3.92559c-0.00100394,-0.0351614 -0.00150787,-0.0617835 -0.00150787,-0.0793622 0,-0.103976 0.0145669,-0.19389 0.0442047,-0.269236 0.0215984,-0.0567598 0.0562559,-0.114024 0.104476,-0.172291 0.0351614,-0.0421929 0.0989567,-0.103472 0.190374,-0.184343 0.0919213,-0.081374 0.151193,-0.145669 0.178819,-0.19389 0.0276299,-0.0477205 0.041189,-0.100461 0.041189,-0.15722 0,-0.102972 -0.0401811,-0.193386 -0.120551,-0.271748 -0.0803701,-0.0778543 -0.179323,-0.117035 -0.295858,-0.117035 -0.113016,0 -0.206949,0.0356654 -0.282291,0.105984 -0.0758504,0.0708268 -0.125075,0.181335 -0.148681,0.331524l-0.272252 -0.0326496c0.0246142,-0.200921 0.0974488,-0.35513 0.218504,-0.462122 0.121055,-0.106988 0.281291,-0.160232 0.480201,-0.160232 0.210969,0 0.37924,0.0572598 0.504815,0.172287 0.125575,0.114528 0.188362,0.253161 0.188362,0.416409 0,0.0939331 -0.0220984,0.180831 -0.0663031,0.260193 -0.0442008,0.0793661 -0.130094,0.176311 -0.258685,0.289831 -0.0863976,0.0768504 -0.142654,0.13311 -0.169276,0.169276 -0.026622,0.0366693 -0.0462126,0.0783583 -0.0587717,0.125075 -0.0130591,0.0472165 -0.0200906,0.123567 -0.0220984,0.229551l-0.254669 0zm-0.0160748 0.531437l0 -0.301886 0.301382 0 0 0.301886 -0.301382 0z"/>
 </g>
 <rect class="fil2" width="6.72" height="6.72"/>
</svg>
