<?xml version="1.0" encoding="utf-8"?>
<!-- Generator: Adobe Illustrator 16.0.0, SVG Export Plug-In . SVG Version: 6.00 Build 0)  -->
<!DOCTYPE svg PUBLIC "-//W3C//DTD SVG 1.1//EN" "http://www.w3.org/Graphics/SVG/1.1/DTD/svg11.dtd">
<svg version="1.1" id="Layer_1" xmlns="http://www.w3.org/2000/svg" xmlns:xlink="http://www.w3.org/1999/xlink" x="0px" y="0px"
	 width="212.795px" height="220.59px" viewBox="0 0 212.795 220.59" enable-background="new 0 0 212.795 220.59"
	 xml:space="preserve">
<path fill="#20354A" d="M196.46,52.558H16.334c-2.809,0-5.088,2.28-5.088,5.089v130.261c0,2.808,2.279,5.087,5.088,5.087H196.46
	c2.81,0,5.089-2.279,5.089-5.087V57.647C201.549,54.838,199.27,52.558,196.46,52.558"/>
<path fill="#10003B" d="M196.46,194.995H16.334c-3.908,0-7.088-3.179-7.088-7.087V57.647c0-3.909,3.18-7.089,7.088-7.089H196.46
	c3.909,0,7.089,3.18,7.089,7.089v130.261C203.549,191.816,200.369,194.995,196.46,194.995 M16.334,54.558
	c-1.703,0-3.088,1.386-3.088,3.089v130.261c0,1.703,1.385,3.087,3.088,3.087H196.46c1.703,0,3.089-1.384,3.089-3.087V57.647
	c0-1.703-1.386-3.089-3.089-3.089H16.334z"/>
<path fill="#10003B" d="M122.679,140.042H90.114c-6.714,0-12.176-5.462-12.176-12.176v-12.212c0-6.714,5.462-12.177,12.176-12.177
	h32.565c6.714,0,12.177,5.463,12.177,12.177v12.212C134.856,134.58,129.394,140.042,122.679,140.042 M90.114,107.477
	c-4.508,0-8.176,3.668-8.176,8.177v12.212c0,4.508,3.668,8.176,8.176,8.176h32.565c4.509,0,8.177-3.668,8.177-8.176v-12.212
	c0-4.509-3.668-8.177-8.177-8.177H90.114z"/>
<path fill="#34495E" d="M201.549,57.646v15.521c0,27.12-21.981,49.101-49.103,49.101h-19.589v-6.614
	c0-5.618-4.559-10.177-10.177-10.177H90.114c-5.617,0-10.175,4.559-10.175,10.177v6.614H60.348
	c-27.12,0-49.102-21.981-49.102-49.101V57.646c0-2.809,2.28-5.089,5.088-5.089H196.46C199.27,52.558,201.549,54.838,201.549,57.646"
	/>
<path fill="#10003B" d="M152.447,124.268h-21.59v-8.614c0-4.509-3.668-8.177-8.177-8.177H90.115c-4.508,0-8.176,3.668-8.176,8.177
	v8.614H60.348c-28.178,0-51.101-22.924-51.101-51.102V57.647c0-3.909,3.179-7.089,7.088-7.089H196.46
	c3.909,0,7.088,3.18,7.088,7.089v15.519C203.549,101.344,180.625,124.268,152.447,124.268 M134.856,120.268h17.59
	c25.973,0,47.102-21.13,47.102-47.102V57.647c0-1.703-1.385-3.089-3.088-3.089H16.334c-1.704,0-3.088,1.386-3.088,3.089v15.519
	c0,25.972,21.13,47.102,47.101,47.102h17.591v-4.614c0-6.714,5.462-12.177,12.176-12.177h32.565c6.714,0,12.177,5.463,12.177,12.177
	V120.268z"/>
<path fill="#FFD161" d="M122.68,105.477H90.114c-5.617,0-10.175,4.559-10.175,10.177v12.212c0,5.617,4.558,10.177,10.175,10.177
	h32.566c5.618,0,10.177-4.56,10.177-10.177v-12.212C132.857,110.036,128.298,105.477,122.68,105.477 M124.715,127.865
	c0,1.119-0.916,2.035-2.035,2.035H90.114c-1.119,0-2.035-0.916-2.035-2.035v-12.212c0-1.12,0.916-2.036,2.035-2.036h32.566
	c1.119,0,2.035,0.916,2.035,2.036V127.865z"/>
<path fill="#10003B" d="M122.679,140.042H90.114c-6.714,0-12.176-5.463-12.176-12.177v-12.212c0-6.714,5.462-12.177,12.176-12.177
	h32.565c6.714,0,12.177,5.463,12.177,12.177v12.212C134.856,134.58,129.394,140.042,122.679,140.042 M90.114,107.477
	c-4.508,0-8.176,3.668-8.176,8.177v12.212c0,4.509,3.668,8.177,8.176,8.177h32.565c4.509,0,8.177-3.668,8.177-8.177v-12.212
	c0-4.509-3.668-8.177-8.177-8.177H90.114z M122.679,131.9H90.114c-2.225,0-4.035-1.81-4.035-4.035v-12.212
	c0-2.225,1.81-4.036,4.035-4.036h32.565c2.225,0,4.036,1.811,4.036,4.036v12.212C126.715,130.09,124.904,131.9,122.679,131.9
	 M90.114,115.617l-0.035,12.248l32.6,0.035l0.036-0.035v-12.212L90.114,115.617z"/>
<path fill="#10003B" d="M122.679,131.9H90.114c-2.225,0-4.035-1.81-4.035-4.035v-12.212c0-2.225,1.81-4.036,4.035-4.036h32.565
	c2.225,0,4.036,1.811,4.036,4.036v12.212C126.715,130.09,124.904,131.9,122.679,131.9 M90.114,115.617l-0.035,12.248l32.6,0.035
	l0.036-12.247c0-0.016-0.022-0.036-0.036-0.036H90.114z"/>
<path fill="#10003B" d="M145.542,54.558H66.235v-2c0-21.865,17.788-39.653,39.654-39.653c21.865,0,39.653,17.788,39.653,39.653
	V54.558z M70.291,50.558h71.195c-1.04-18.733-16.609-33.653-35.597-33.653C86.9,16.905,71.331,31.825,70.291,50.558"/>
<path fill="#10003B" d="M113.69,64.734H57.379c-1.104,0-2-0.896-2-2c0-1.104,0.896-2,2-2h56.311c1.104,0,2,0.896,2,2
	C115.69,63.839,114.794,64.734,113.69,64.734"/>
<path fill="#10003B" d="M42.115,64.734H27.698c-1.104,0-2-0.896-2-2c0-1.104,0.896-2,2-2h14.417c1.104,0,2,0.896,2,2
	C44.115,63.839,43.219,64.734,42.115,64.734"/>
<path fill="#10003B" d="M21.423,150.896c-1.104,0-2-0.896-2-2v-22.389c0-1.104,0.896-2,2-2s2,0.896,2,2v22.389
	C23.423,150.001,22.527,150.896,21.423,150.896"/>
</svg>
