<?xml version="1.0" encoding="iso-8859-1"?>
<!-- Generator: Adobe Illustrator 19.0.0, SVG Export Plug-In . SVG Version: 6.00 Build 0)  -->
<svg version="1.1" xmlns="http://www.w3.org/2000/svg" xmlns:xlink="http://www.w3.org/1999/xlink" x="0px" y="0px"
	 viewBox="0 0 512 512" style="enable-background:new 0 0 512 512;" xml:space="preserve">
<g id="_x33_92_x2C__Account_x2C__Human_x2C__Man_x2C__Person">
	<g id="XMLID_15421_">
		<g id="XMLID_15422_">
			<path id="XMLID_15423_" style="fill:#FCC697;" d="M345.36,109.179c1.779,7.16,2.72,14.67,2.72,22.42
				c0,46.98-32.061,131.229-90.96,131.229c-58.16,0-90.22-84.249-90.22-131.229c0-10.42,1.7-20.4,4.84-29.68
				c11.1,4.38,24.38,6.57,37.66,6.57c22.31,0,42.57-6.3,57.28-16.59l0.13,0.19c14.91,11.18,35.79,18.64,59.65,18.64
				c6.71,0,12.67-0.75,18.64-1.49L345.36,109.179z"/>
		</g>
		<g id="XMLID_15424_">
			<path id="XMLID_15425_" style="fill:#60534A;" d="M326.46,110.729c-23.86,0-44.74-7.46-59.65-18.64l-0.13-0.19
				c14.801-10.35,23.99-24.74,23.99-40.82l1.45-3.6c26.34,10.81,46.25,33.54,53.24,61.7l-0.261,0.06
				C339.13,109.979,333.17,110.729,326.46,110.729z"/>
		</g>
		<g id="XMLID_15426_">
			<path id="XMLID_15427_" style="fill:#73665C;" d="M292.12,47.479l-1.45,3.6c0,16.08-9.189,30.47-23.99,40.82
				c-14.709,10.29-34.97,16.59-57.28,16.59c-13.28,0-26.56-2.19-37.66-6.57c12.12-35.87,45.69-61.28,85.38-61.28
				C269.56,40.639,281.38,43.059,292.12,47.479z"/>
		</g>
		<g id="XMLID_15428_">
			<g id="XMLID_15429_">
				<polygon id="XMLID_15430_" style="fill:#65768A;" points="200,268.998 256,345.299 230,388.998 182.42,291.789 				"/>
			</g>
			<g id="XMLID_15431_">
				<polygon id="XMLID_15432_" style="fill:#65768A;" points="310,268.998 329.1,291.789 280,388.998 256,345.299 				"/>
			</g>
			<g id="XMLID_15433_">
				<polygon id="XMLID_15434_" style="fill:#B7C9F1;" points="140,468.998 80,468.998 80,328.998 158.05,301.338 182.42,291.789 
					230,388.998 256,345.299 280,388.998 329.1,291.789 430,328.998 430,468.998 370,468.998 				"/>
			</g>
			<g id="XMLID_15439_">
				<g id="XMLID_16129_">
					<path id="XMLID_16145_" style="fill:#65768A;" d="M380,469v-67.002c0-5.521-4.478-10-10-10c-5.523,0-10,4.479-10,10V469H380z"
						/>
					<path id="XMLID_16144_" style="fill:#65768A;" d="M150,469v-67.002c0-5.521-4.477-10-10-10s-10,4.479-10,10V469H150z"/>
				</g>
			</g>
		</g>
	</g>
</g>
<g id="Layer_1">
</g>
</svg>
