<?xml version="1.0" encoding="iso-8859-1"?>
<!-- Uploaded to: SVG Repo, www.svgrepo.com, Generator: SVG Repo Mixer Tools -->
<!DOCTYPE svg PUBLIC "-//W3C//DTD SVG 1.1//EN" "http://www.w3.org/Graphics/SVG/1.1/DTD/svg11.dtd">
<svg fill="#000000" height="800px" width="800px" version="1.1" id="Capa_1" xmlns="http://www.w3.org/2000/svg" xmlns:xlink="http://www.w3.org/1999/xlink" 
	 viewBox="0 0 495.604 495.604" xml:space="preserve">
<g>
	<path d="M199.467,470.483c0,13.871,11.252,25.121,25.123,25.121c13.876,0,25.12-11.243,25.12-25.121v-135.29l-50.243,38.538
		V470.483z"/>
	<path d="M259.612,109.353c30.197,0,54.681-24.474,54.681-54.672C314.293,24.483,289.809,0,259.612,0
		c-30.198,0-54.68,24.483-54.68,54.681C204.932,84.879,229.414,109.353,259.612,109.353z"/>
	<path d="M224.555,249.702c-0.168,3.631-0.639,7.284-1.818,10.908l-14.67,45.087c-5.69,17.483-21.913,28.589-39.348,28.589
		c-4.243,0-8.56-0.654-12.811-2.037c-15.911-5.177-26.452-19.1-28.235-34.705l-2.303,1.766c-2.773,2.134-4.591,5.279-5.053,8.746
		c-0.452,3.477,0.485,6.984,2.619,9.757l37.256,48.563c2.595,3.387,6.515,5.165,10.475,5.165c2.805,0,5.635-0.889,8.027-2.732
		l75.922-58.247c2.773-2.133,4.592-5.277,5.053-8.745c0.451-3.476-0.485-6.985-2.619-9.757L224.555,249.702z"/>
	<g>
		<path d="M374.171,285.214l-42.152-129.602c-5.634-17.297-21.638-28.921-39.825-28.921h-65.108
			c-18.186,0-34.19,11.624-39.824,28.929l-17.311,53.21l-24.85,76.384c-4.244,13.038,2.885,27.046,15.931,31.289
			c13.013,4.244,27.045-2.878,31.289-15.931l24.855-76.395l0.365-1.121c6.032,1.729,11.439,5.223,15.389,10.362l4.692,6.117
			l10.83-63.182l2.05-11.956c0.186-1.051,1.099-1.817,2.167-1.817h13.886c1.066,0,1.979,0.767,2.166,1.817l2.049,11.956
			l13.163,76.788c0.646,3.807-0.404,7.72-2.878,10.686l-12.929,15.477l2.04,2.662c4.843,6.288,6.944,14.096,5.909,22.033
			c-0.738,5.557-3.029,10.629-6.514,14.861v151.625c0,13.877,11.244,25.121,25.12,25.121c13.88,0,25.123-11.243,25.123-25.121
			V312.171h-0.023v-33.638l7.169,22.039c3.411,10.492,13.143,17.16,23.602,17.16c2.547,0,5.141-0.396,7.687-1.228
			C371.286,312.268,378.415,298.252,374.171,285.214z M268.447,150.843c0,1.211-0.978,2.191-2.189,2.191h-12.95
			c-1.213,0-2.191-0.98-2.191-2.191v-15.236c0-1.213,0.978-2.191,2.191-2.191h12.95c1.211,0,2.189,0.978,2.189,2.191V150.843z"/>
	</g>
</g>
</svg>